<svg xmlns="http://www.w3.org/2000/svg" viewBox="0 0 1000 1000" fill="#6200d4">
    <path
        d="M439.6,313.8C394,268.2,324.1,198.2,281.8,156c-18.2-18.2-30.1-30-30.1-30s48.7-48.8,68.9-69c20.2-20.2-15.9-19.1-15.9-19.1L34.4,12.3c0,0-21.9-1.8-21.9,19.3c0,29.1,34.2,271.5,34.2,271.5s-0.2,36.9,24.4,12.4c24.5-24.6,63.8-63.8,63.8-63.8s10.6,10.7,26.9,27c41.3,41.3,114.1,114.1,159.8,159.8C338.2,380.1,382.5,333.5,439.6,313.8z" />
    <path
        d="M956,697.3c0,0,0.1-36.9-24.4-12.4c-24.6,24.6-63.8,63.8-63.8,63.8s-10.7-10.6-26.9-27C797.5,678.4,718.9,599.8,674,554.9c-21.3,56.3-69,99.5-128.1,114.5c43.1,43.1,126.8,126.9,174.9,175c18.3,18.2,30.1,30,30.1,30s-48.8,49-69,69.1c-20.2,20.2,16,19.1,16,19.1l270.5,25.6c0,0,21.8,1.6,21.8-19.4C990,939.9,956,697.3,956,697.3z" />
    <path
        d="M324.3,548.9C279.9,593.3,200.1,673,153.7,719.5c-18.2,18.2-30,30.1-30,30.1s-48.9-48.9-69.1-69.1c-20.2-20.2-19.1,15.9-19.1,15.9L10,967c0,0-1.8,21.8,19.3,21.8c29.1,0,271.6-34.1,271.6-34.1s36.9,0.1,12.3-24.5c-24.6-24.5-63.7-63.6-63.7-63.6s10.7-10.7,27.1-27.1c45-45,127.8-127.9,171.7-171.7C389.9,650.7,343.6,606.1,324.3,548.9z" />
    <path
        d="M680,442.8c45.4-45.4,118.6-118.6,162.3-162.3c18.2-18.2,30-30,30-30s48.8,48.8,69.1,69c20.1,20.2,19.1-15.9,19.1-15.9L986,33c0,0,1.8-21.8-19.4-21.8c-29,0-271.5,34.1-271.5,34.1s-36.9-0.2-12.4,24.5c24.7,24.5,63.7,63.8,63.7,63.8s-10.6,10.7-26.9,27c-39.8,39.8-109,108.8-154.8,154.8C621.2,336.2,664.7,383.7,680,442.8z" />
</svg>